<svg
   viewBox="0 0 131.74648 250.36514">
  <path
     id="path56434"
     style="fill:#f2f2f2;stroke:#c8c8c8"
     d="m 77.165424,47.227766 c 3.215579,2.477813 1.813507,9.673433 -3.006018,10.168494 l 0.928856,2.406171 c 6.094298,-1.159697 7.75096,-11.972544 2.077162,-12.574665 z m -16.066365,5.726429 c -2.334902,2.411379 -0.456947,5.908438 2.588436,7.765653 0.01968,1.337762 0.550275,2.810749 1.428894,4.106918 -0.03125,0.222636 -0.05215,0.450027 -0.06229,0.681561 -0.94226,1.066137 -1.549538,2.643033 -1.718866,4.31347 -3.054269,-0.649416 -5.12134,2.524719 -5.335883,5.957448 -5.377997,-0.365647 -6.262116,10.17484 -0.736531,12.734032 l 1.460025,-2.071382 0.02505,-0.03739 c -4.420143,-1.604899 -4.181355,-8.549385 -0.759086,-10.437078 -0.104469,2.453754 0.741102,5.005978 2.852789,6.363804 l 1.744178,-1.865675 0.0169,-0.01925 c -4.172298,-2.203539 -2.960415,-9.087131 0.717217,-10.455421 -0.214118,2.567962 0.606119,5.319856 2.828677,6.748977 l 1.732383,-1.853189 0.02871,-0.03173 c -2.347306,-1.239696 -2.99031,-3.960935 -2.44907,-6.348098 0.756911,2.443697 2.52598,4.668592 5.098442,5.174611 l 0.929263,-2.363688 0.01318,-0.03679 c -2.421854,-0.264417 -3.968399,-2.21814 -4.497091,-4.407373 1.389455,1.101263 3.098492,1.74365 4.895705,1.47852 l 0.0853,-2.516284 0.0011,-0.06099 c -1.559638,0.368345 -3.006621,-0.07941 -4.164401,-0.96544 0.340336,-0.223899 0.70931,-0.398023 1.104322,-0.50868 -0.632529,-0.180292 -1.224968,-0.196241 -1.771068,-0.08187 -0.08286,-0.08411 -0.164081,-0.170133 -0.242674,-0.258713 0.136958,-0.725513 0.401139,-1.402986 0.798729,-1.974139 1.045763,0.03181 2.086934,-0.179908 3.04182,-0.711201 l -0.819345,-2.412124 -0.01056,-0.0299 c -1.499203,1.010932 -3.231194,1.000035 -4.767624,0.383542 0.04567,-0.741521 0.253493,-1.448383 0.653932,-2.059917 -0.783699,0.369182 -1.329241,0.905748 -1.671534,1.546305 -2.066313,-1.264545 -3.515407,-3.603085 -3.039065,-5.748537 z m 8.824291,5.878608 5.26e-4,-5.33e-4 0.01004,0.03042 1.073916,2.961186 c 0.352323,0.971548 1.41829,1.470025 2.389848,1.117699 l 0.589145,-0.213523 c 0.97155,-0.352323 1.470022,-1.418297 1.117699,-2.389845 l -1.208372,-3.332803 c -0.352324,-0.971548 -1.418297,-1.470023 -2.389846,-1.1177 l -0.589143,0.214039 c -0.971559,0.352325 -1.470026,1.417778 -1.117703,2.389329 z m 2.063164,6.94206 c 2.64e-4,-8.6e-5 7.9e-4,-5.34e-4 0.0011,-5.46e-4 l -0.0022,0.06151 -0.0417,3.120085 c -0.0056,0.415505 0.124144,0.799762 0.348013,1.112194 -0.293329,0.209724 -0.529026,0.506765 -0.664004,0.871917 l -0.126233,0.340944 c 2.66e-4,4e-5 7.94e-4,-4.5e-5 0.0011,-8e-6 l -0.01421,0.0368 -1.061534,2.871078 c -0.742005,-0.402882 -1.68497,-0.261528 -2.274604,0.395634 l -0.242496,0.270462 5.33e-4,5.26e-4 -0.02923,0.03122 -2.096344,2.336403 c -0.690176,0.769217 -0.626814,1.94436 0.14241,2.634545 l 0.46655,0.418344 c 0.76922,0.690174 1.944368,0.626808 2.634545,-0.14241 l 2.367551,-2.638596 c 0.193487,-0.215648 0.328041,-0.462976 0.404104,-0.722771 l 0.289645,0.106962 c 0.969353,0.358324 2.038332,-0.13359 2.396653,-1.10294 l 1.228815,-3.325496 c 0.242885,-0.657064 0.09481,-1.359241 -0.327512,-1.855465 0.540418,-0.3198 0.904637,-0.904788 0.913689,-1.581178 l 0.04744,-3.544917 c 0.01383,-1.033368 -0.807,-1.876261 -1.840366,-1.89009 l -0.626395,-0.0084 c -1.03338,-0.01383 -1.876779,0.807003 -1.890607,1.840372 z m -9.383824,14.671451 5.33e-4,5.25e-4 -0.01743,0.01872 -2.108136,2.349405 c -0.63697,0.709917 -0.631356,1.764642 -0.0221,2.465705 -0.583694,0.01305 -1.151299,0.29976 -1.504123,0.822648 l -0.203518,0.30119 c 2.65e-4,1.33e-4 7.95e-4,2.48e-4 0.0011,5.22e-4 l -0.02609,0.03687 -1.754411,2.600093 c -0.443935,0.657912 -0.414043,1.491382 0.01147,2.10475 -0.699953,0.0021 -1.367464,0.400056 -1.683673,1.078707 l -0.153188,0.329255 c 2.64e-4,6.3e-5 7.93e-4,-7.3e-5 0.0011,-9e-6 l -0.02496,0.0503 -1.320195,2.83366 c -0.353323,0.758313 -0.156237,1.62716 0.428417,2.16222 -0.662373,0.17563 -1.200759,0.71096 -1.347831,1.4303 l -0.0729,0.35606 c 5.29e-4,-2e-5 0.0011,10e-6 0.0016,-1e-5 l -0.01503,0.0668 -0.623575,3.050365 c -0.207017,1.01251 0.441462,1.99436 1.453985,2.20138 l 0.614315,0.12531 c 1.01251,0.20701 1.99436,-0.44148 2.201375,-1.45399 l 0.709944,-3.473195 c 0.126628,-0.61933 -0.0671,-1.22685 -0.468171,-1.65291 0.454942,-0.16105 0.847056,-0.49793 1.067924,-0.97197 l 1.497309,-3.213213 c 0.27583,-0.591991 0.216417,-1.25131 -0.101041,-1.766652 0.559214,-0.03323 1.096478,-0.317274 1.435412,-0.819573 l 1.982983,-2.938669 c 0.467548,-0.692907 0.409875,-1.580775 -0.08245,-2.20088 0.459577,-0.03665 0.906366,-0.243247 1.239988,-0.615077 l 2.367552,-2.638596 C 66.77905,82.317136 66.71517,81.142507 65.945954,80.45233 l -0.466565,-0.418851 c -0.769226,-0.690182 -1.943846,-0.626295 -2.634023,0.142922 z m -9.809547,19.007691 0.01347,-0.0668 c -4.839195,0.21084 -7.273851,-6.702421 -4.453885,-9.621972 -5.525533,1.422333 -2.311291,11.878677 3.886937,12.138097 z m 2.325976,-6.849008 0.02393,-0.0503 C 50.386694,91.63651 49.623827,84.346335 53.044787,82.161329 47.34001,82.261701 48.03816,93.178638 54.006724,94.870257 Z M 82.863046,57.478002 c 2.132182,3.454462 -1.722424,9.690224 -6.405826,8.449793 l 0.01797,2.579107 c 6.110807,1.069291 11.482555,-8.460155 6.387834,-11.028897 z m -17.351904,4.097981 c 0.362204,0.122564 0.731204,0.220611 1.103336,0.290265 -0.25199,0.204788 -0.472373,0.443701 -0.66206,0.711183 -0.17319,-0.324024 -0.321081,-0.659741 -0.441276,-1.001448 z m 19.014123,5.51973 c 0.855358,3.968359 -4.861533,8.557615 -8.861272,5.823571 l -0.844502,2.43698 c 5.402291,3.04969 13.649335,-4.137102 9.705774,-8.260551 z m -2.966675,8.665422 c -0.666455,4.004418 -7.671684,6.165446 -10.383174,2.150382 l -1.682559,1.954635 c 1.566749,1.938814 4.169043,2.50937 6.582678,2.15632 -1.280717,3.5619 -7.650632,5.265162 -10.206589,1.480403 l -1.683076,1.95464 c 1.795712,2.22215 4.951416,2.647183 7.624527,1.943684 -0.63347,1.096712 -1.724895,2.009055 -2.984045,2.569637 -0.10255,-0.176248 -0.222358,-0.350077 -0.360831,-0.520909 0.02883,0.21995 0.03661,0.439963 0.02746,0.659213 -2.062739,0.798485 -4.491445,0.654483 -6.090032,-1.12578 l -1.398869,2.16758 c 1.797259,1.685884 4.413413,1.908029 6.735897,1.254995 -0.443955,0.712375 -1.057125,1.356493 -1.772012,1.875693 -0.226619,-0.365876 -0.530716,-0.706049 -0.923996,-1.008324 0.176059,0.461146 0.256992,0.946528 0.256306,1.43894 -1.904264,1.088319 -4.300688,1.310902 -6.14322,-0.18383 l -1.040914,2.359837 c 1.940912,1.316124 4.406278,1.207174 6.528705,0.323694 -0.167074,0.32214 -0.362955,0.63464 -0.582954,0.93232 -0.258301,-0.17413 -0.550024,-0.32225 -0.877542,-0.43969 0.215711,0.26912 0.389989,0.5639 0.527202,0.87681 -1.596868,1.844635 -4.15652,2.937215 -6.541945,1.793125 l -0.464471,2.53709 c 2.5938,0.98083 5.432293,-0.15088 7.381205,-2.00791 -0.03234,0.52566 -0.133242,1.05903 -0.295636,1.57984 -0.133193,-0.0303 -0.270707,-0.0546 -0.413425,-0.0725 0.119148,0.0954 0.230635,0.19815 0.336548,0.30609 -0.854774,2.44373 -3.059428,4.54051 -5.85317,4.1576 l 0.334101,2.55773 c 2.945502,0.14895 5.430751,-2.05972 6.651861,-4.6243 0.7986,3.12589 -0.969095,7.40291 -4.666989,7.71227 l 0.883459,2.42357 c 5.213011,-0.89028 7.332599,-8.85391 4.337648,-11.62399 0.366638,-1.35603 0.355907,-2.70517 -0.143863,-3.773515 0.751018,-1.07132 1.215226,-2.24667 1.226031,-3.353377 1.62767,-1.156786 2.77068,-2.768428 2.817588,-4.378197 2.14471,-1.038858 3.726512,-2.830701 3.600251,-4.773979 2.368374,-0.953486 4.072388,-2.834687 3.545864,-5.079524 3.436236,-0.642579 6.352087,-3.14762 5.111928,-6.200277 z m -35.33873,23.71107 c -2.934457,1.851805 -1.769024,5.894945 0.939875,8.408475 -3.935158,4.03362 4.085918,11.35554 9.541445,8.45373 l -0.769227,-2.41351 -0.01529,-0.0438 c -4.041301,2.6149 -9.593926,-2.03924 -8.727269,-5.96922 1.742752,1.60326 4.114986,2.57376 6.445148,1.93095 l -0.225391,-2.53214 -0.0039,-0.0377 c -4.542895,1.68275 -8.976804,-4.15406 -7.185394,-7.796765 z m 7.185393,7.796765 c 0,0 5.31e-4,0 5.31e-4,0 l 0.0034,0.0377 0.342825,3.1256 c 0.112753,1.02729 1.030463,1.76357 2.057763,1.65081 l 0.0976,-0.0105 c -0.225319,0.43525 -0.279456,0.95806 -0.107865,1.46066 l 0.117146,0.34387 c 2.64e-4,-2.2e-4 7.94e-4,-2.7e-4 0.0011,-5.4e-4 l 0.01425,0.0443 1.012983,2.9673 c 0.333902,0.97804 1.390423,1.49672 2.368464,1.16281 l 0.592854,-0.20265 c 0.978024,-0.33393 1.496721,-1.38992 1.162819,-2.36795 l -1.145475,-3.35497 c -0.28873,-0.8457 -1.11729,-1.34746 -1.968603,-1.25199 0.115582,-0.28018 0.164342,-0.59299 0.12882,-0.91665 l -0.387022,-3.52372 c -0.112756,-1.02729 -1.030473,-1.76356 -2.057765,-1.65081 l -0.622745,0.068 c -1.0273,0.11276 -1.763565,1.03099 -1.650811,2.05828 z" />
  <path
     id="path56172"
     style="fill:#f2f2f2;stroke:#c8c8c8"
     d="m 73.955133,152.5793 c -2.703606,1.03761 -2.903434,4.1296 -1.636846,6.8647 -0.783285,1.09987 -1.0144,2.67791 -0.77437,4.30116 -0.93817,0.82432 -1.454834,2.1565 -1.569467,3.64195 -1.438061,0.91993 -2.255715,2.89297 -2.347431,5.02391 -5.121651,-0.0237 -5.965049,10.1789 -0.560883,12.73885 l 1.475248,-2.05418 0.0283,-0.0414 c -4.281918,-1.59676 -4.120328,-8.19757 -0.951965,-10.27373 -0.01018,2.71901 1.150111,5.59971 3.684116,6.80006 l 1.475248,-2.05418 0.0283,-0.0414 c -3.206348,-1.19567 -3.911677,-5.19169 -2.738201,-7.99854 0.431571,2.68152 2.040975,5.33138 4.732224,6.10568 l 1.124795,-2.26817 0.02055,-0.043 c -2.828045,-0.55758 -4.233011,-3.36555 -4.184685,-6.00592 0.217509,-0.15157 0.448899,-0.28257 0.695507,-0.38747 -0.22042,-0.033 -0.433915,-0.048 -0.640433,-0.0459 -0.01168,-2e-5 -0.02242,0.002 -0.03412,0.003 0.03471,-0.43743 0.110603,-0.86617 0.226876,-1.2755 0.874129,2.39547 2.741416,4.52216 5.325699,4.90612 l 0.816424,-2.40216 0.01282,-0.0398 c -2.62887,-0.16327 -4.328214,-2.34655 -4.831669,-4.72355 0.171488,-0.1589 0.356682,-0.30301 0.556376,-0.42945 -0.217641,0.003 -0.425939,0.0221 -0.625129,0.0555 -0.102711,-0.65049 -0.116032,-1.30785 -0.03441,-1.93622 1.395468,1.93444 3.546722,3.37168 5.975608,3.19482 l 0.27145,-2.50915 0.005,-0.0553 c -2.338127,0.37291 -4.299615,-1.01123 -5.406332,-2.89981 0.192838,-0.27156 0.417043,-0.5193 0.674887,-0.7352 -0.33907,0.05 -0.649568,0.13663 -0.933598,0.25379 -0.924978,-1.89062 -1.021152,-4.15248 0.140051,-5.66881 z m 5.524991,9.05002 c 2.65e-4,-5e-5 7.94e-4,5e-5 0.0011,0 l -0.006,0.0553 -0.272324,3.11429 c -0.05531,0.63296 0.210015,1.21715 0.661313,1.59442 -0.718386,0.0715 -1.358105,0.55877 -1.591089,1.2928 l -0.110126,0.34654 c 2.65e-4,2e-5 7.94e-4,-2e-5 0.0011,1e-5 l -0.01383,0.0398 -0.949634,2.9927 c -0.0989,0.31161 -0.112215,0.62926 -0.0532,0.92774 -0.445333,0.16251 -0.829073,0.49472 -1.047875,0.9595 l -0.154618,0.32858 c 2.65e-4,6e-5 7.93e-4,-7e-5 0.0011,0 l -0.02157,0.043 -1.33455,2.83566 c -0.03423,0.0727 -0.06299,0.14649 -0.08722,0.2209 -0.576568,0.0145 -1.138109,0.29158 -1.491183,0.8052 l -0.205858,0.29927 c 2.65e-4,1.3e-4 7.95e-4,2.3e-4 0.0011,5.2e-4 l -0.02934,0.0409 -1.774004,2.58057 c -0.408432,0.59415 -0.426774,1.33682 -0.111856,1.93044 -0.766757,-0.25188 -1.63428,0.0173 -2.11568,0.71756 l -0.205862,0.29927 c 2.66e-4,1.4e-4 7.94e-4,2.4e-4 0.0011,5.3e-4 l -0.02934,0.0409 -1.774004,2.58057 c -0.585441,0.85165 -0.371487,2.0084 0.480168,2.59385 l 0.516736,0.3551 c 0.851647,0.58544 2.008404,0.37097 2.593842,-0.48068 l 2.008172,-2.92126 c 0.40843,-0.59415 0.427291,-1.33684 0.112368,-1.93045 0.766755,0.25188 1.634283,-0.0167 2.115684,-0.71704 l 2.008169,-2.92179 c 0.122064,-0.17757 0.201243,-0.3699 0.255233,-0.56606 0.695058,-0.004 1.357542,-0.39932 1.674396,-1.07237 l 1.510233,-3.20718 c 0.18705,-0.39733 0.221988,-0.82535 0.129365,-1.22046 0.543581,-0.18296 0.995005,-0.61335 1.182577,-1.2043 l 1.072047,-3.37906 c 0.259668,-0.81809 -0.06985,-1.67699 -0.753244,-2.12385 0.965815,0.008 1.785482,-0.72307 1.871053,-1.70235 l 0.308353,-3.53193 c 0.08997,-1.02954 -0.665995,-1.93046 -1.695533,-2.02043 l -0.624407,-0.0546 c -1.029547,-0.09 -1.930969,0.66651 -2.020933,1.69605 z m 11.458345,-7.47174 c 1.871738,3.60224 -2.43202,9.53653 -7.011241,7.95424 l -0.172052,2.57347 c 6.015362,1.51684 12.074787,-7.59039 7.18329,-10.52771 z m 0.03858,9.08621 c 1.039788,3.92407 -4.456765,8.77482 -8.579843,6.23059 l -0.729406,2.47427 c 2.507761,1.26502 5.499926,0.40663 7.640404,-1.2768 0.03826,3.874 -5.744127,7.55352 -9.35702,4.59878 l -1.050649,2.3558 c 2.208352,1.51029 5.106715,1.16841 7.403013,-0.0648 -1.022657,3.55874 -6.912139,5.88065 -9.865665,2.53367 l -1.417088,2.1553 c 1.833146,1.74959 4.545607,1.95953 6.922021,1.2579 -1.312239,3.34073 -6.89269,5.38341 -9.740639,2.15607 l -1.417604,2.1553 c 4.16211,3.97241 12.857227,0.0103 11.85573,-4.54693 2.843153,-1.08504 4.977575,-3.47158 4.115714,-5.97097 2.655069,-1.62015 4.315831,-4.43473 2.738315,-6.78099 2.463912,-2.04116 3.688896,-5.17623 1.482717,-7.27715 z m -30.291207,17.78015 c -2.840367,0.022 -4.348847,3.2052 -4.185147,6.45332 -5.682608,-0.46707 -6.081022,10.46028 -0.313347,12.74124 l 1.334955,-2.14319 0.02777,-0.0465 c -4.638625,-1.39 -4.668367,-8.71524 -1.049377,-10.54941 0.129566,2.55978 1.297634,5.15972 3.671805,6.28436 l 1.475249,-2.05469 0.0283,-0.0414 c -4.538751,-1.69254 -4.085084,-9.00796 -0.349809,-10.59687 -0.220419,-0.033 -0.433925,-0.0483 -0.640394,-0.0469 z m 0.990217,10.64363 c 2.65e-4,1.3e-4 7.95e-4,2.4e-4 0.0011,5.2e-4 l -0.02934,0.0409 -1.774003,2.58057 c -0.58544,0.85164 -0.37097,2.00892 0.480685,2.59436 l 0.516735,0.35511 c 0.851645,0.58544 2.008406,0.37096 2.593842,-0.48068 l 2.008173,-2.92127 c 0.585439,-0.85165 0.37096,-2.00893 -0.480687,-2.59437 l -0.516218,-0.3551 c -0.851655,-0.58545 -2.00892,-0.37097 -2.594361,0.48068 z m -4.125981,6.36116 c 2.64e-4,1.1e-4 7.95e-4,5.3e-4 0.0011,5.2e-4 l -0.02881,0.0461 -1.598517,2.68809 c -0.528183,0.88828 -0.23822,2.02848 0.65008,2.55666 l 0.01191,0.007 c -0.773522,0.0431 -1.465633,0.56772 -1.68806,1.35715 l -0.09823,0.3496 c 0,0 5.28e-4,1e-5 5.28e-4,1e-5 l -0.01075,0.0346 -0.852897,3.02807 c -0.280274,0.99473 0.294891,2.02087 1.289631,2.30114 l 0.198078,0.0558 c -0.853901,0.0801 -1.563596,0.74164 -1.67282,1.62944 l -0.04446,0.36082 c 2.64e-4,-4e-5 7.94e-4,5e-5 0.0011,1e-5 l -0.0061,0.0434 -0.382912,3.1146 c -0.126192,1.02573 0.597616,1.95282 1.623354,2.07901 l 0.622404,0.0768 c 0.0723,0.009 0.143897,0.0132 0.215023,0.0138 l -0.178214,0.0264 c -1.022275,0.15172 -1.722897,1.09678 -1.571186,2.11905 l 0.05321,0.35952 c 2.65e-4,-1.5e-4 7.93e-4,-2.6e-4 0.0011,-5.3e-4 l 0.0059,0.0455 0.460417,3.1024 c 0.151712,1.02226 1.096772,1.7229 2.119047,1.57118 l 0.61986,-0.0922 c 1.022263,-0.15171 1.723412,-1.09679 1.571701,-2.11905 l -0.520469,-3.50634 c -0.146326,-0.98597 -1.030742,-1.673 -2.010563,-1.58441 0.686864,-0.20591 1.21989,-0.79951 1.313351,-1.55918 l 0.432932,-3.51833 c 0.113971,-0.92643 -0.46578,-1.77279 -1.334833,-2.02092 0.647729,-0.14407 1.195722,-0.63014 1.388969,-1.316 l 0.961364,-3.41233 c 0.216342,-0.76783 -0.07747,-1.55424 -0.680036,-2.0021 0.506528,-0.0959 0.971993,-0.39377 1.257409,-0.87379 l 1.811963,-3.04681 c 0.528184,-0.88829 0.238221,-2.02849 -0.650081,-2.55667 l -0.538857,-0.32042 c -0.8883,-0.5282 -2.028492,-0.23819 -2.556674,0.65008 z m -3.459829,22.29274 -0.0068,-0.045 c -4.475462,1.85343 -9.127723,-3.81053 -7.476109,-7.5185 -4.706022,3.22612 1.889946,11.95292 7.803213,10.07712 z m -0.388517,-7.83412 0.005,-0.0434 c -4.807604,0.59389 -7.782058,-6.10527 -5.202029,-9.23904 -5.395562,1.85538 -1.363692,12.02455 4.835619,11.79238 z m 1.087512,-7.41867 0.01025,-0.0346 c -4.84245,-0.14149 -6.767012,-7.21423 -3.741506,-9.92065 -5.614516,1.01576 -3.171414,11.67821 2.991415,12.38878 z m 20.539429,-14.25875 c -0.145553,4.05689 -6.814451,7.10112 -10.020124,3.46842 l -1.417084,2.15529 c 1.856465,1.77186 4.614595,1.96421 7.012376,1.23026 -0.419731,1.25299 -1.422865,2.36333 -2.672186,3.11486 -0.193533,-0.33637 -0.452024,-0.65497 -0.782483,-0.94967 0.12546,0.41778 0.175427,0.84869 0.160202,1.28215 -2.036254,0.97086 -4.531407,1.00332 -6.263165,-0.71663 l -1.272661,2.24378 c 1.899503,1.58792 4.539035,1.65093 6.827867,0.85456 -1.462006,2.61462 -4.913021,4.51098 -7.823046,2.84416 l -0.648722,2.49679 c 2.454477,1.13903 5.293958,0.29341 7.362211,-1.33701 -0.08228,1.14636 -0.562948,2.32264 -1.30786,3.32083 -0.289016,-0.19284 -0.617558,-0.35284 -0.991453,-0.47108 0.248022,0.2864 0.448566,0.60507 0.60419,0.94707 -1.475259,1.66465 -3.717517,2.65482 -5.962563,1.78935 l -0.261991,2.56598 c 2.396603,0.69502 4.860025,-0.32839 6.638412,-2.00158 -0.140236,3.05986 -2.55287,6.40373 -5.989761,6.06514 l 0.430931,2.54334 c 4.952775,0.062 8.358486,-6.46977 6.761601,-9.98132 1.298983,-1.81415 1.825379,-3.963 0.959413,-5.56725 1.18449,-1.20541 1.962095,-2.66962 2.010135,-4.05609 2.080787,-1.2627 3.469523,-3.24827 2.947297,-5.24214 3.037048,-1.20634 5.226547,-3.89878 3.698461,-6.59921 z" />
  <path
     id="serpiente"
     style="fill:#008000;stroke:#004d00;stroke-width:1.865"
     d="m 87.622559,11.023083 2.185911,7.190259 c 4.311142,2.153052 7.981373,4.896978 9.856763,8.003129 5.154417,8.537116 0.783797,17.447571 -5.191413,24.370089 l -1.983343,11.925887 4.835363,1.560627 8.40517,-9.792166 c -0.44953,-9.151554 8.15335,-17.47561 -0.50436,-30.391944 C 101.38242,18.153805 94.591774,13.883176 87.622559,11.023083 Z m -44.11927,5.209501 c -6.979344,4.391577 -12.914461,13.767544 -15.310178,21.239014 -5.433139,16.944205 2.887771,34.700607 16.677018,41.895117 13.789247,7.19451 32.093127,6.396064 40.568067,14.439945 8.474937,8.04388 12.959151,18.67059 9.508463,26.92807 -3.45069,8.25748 -23.467303,10.88099 -23.467303,10.88099 l 0.133842,10.66292 c 0,0 28.186356,-6.27428 33.617592,-18.98127 5.43122,-12.707 1.74851,-24.204494 -8.656324,-34.835603 C 86.169636,77.830655 63.217281,79.310899 52.063488,72.690119 40.909695,66.069339 31.297271,57.213145 34.152953,43.794209 34.731034,41.077798 36.529322,34.493911 38.378018,32.083814 Z M 64.19143,132.67199 c -9.197848,1.95275 -49.127052,8.80443 -44.088264,37.62147 5.038787,28.81705 62.153431,9.50475 66.795921,31.73036 4.642501,22.22563 -16.278076,26.28574 -16.278076,26.28574 l -0.02635,4.26537 c 0,0 26.826475,-2.35053 22.189345,-30.01212 C 88.14686,174.90122 30.498105,184.92275 27.66601,167.8192 24.833919,150.71564 64.021414,143.71834 64.021414,143.71834 Z m 0.08888,96.67885 c -9.172895,1.84109 -17.153657,0.67949 -25.444958,0.30076 8.269557,1.94731 16.471521,4.15577 25.512654,3.12435 z" />
  <path
     id="cerebro"
     style="fill:#ffd5d5;stroke:#ffaaaa;stroke-width:1.68077"
     d="m 79.068838,47.428229 c 8.757468,-4.038484 6.599053,-14.26934 11.392524,-15.896881 m -8.496999,20.046195 c 3.180324,-6.113743 -6.111154,-1.903511 -8.725699,-9.46541 m 7.532493,-17.285574 c 1.763391,4.644522 -2.396028,12.763513 -2.200451,16.884207 M 89.039399,16.845738 C 87.253203,26.344095 70.152104,22.295977 73.239443,37.723185 M 77.880591,14.635099 C 77.815271,7.6402833 73.203759,8.5445737 72.462269,6.1358609 m 10.31221,1.8157881 c -9.543131,10.256769 -5.015976,8.419425 -1.088675,13.236809 M 68.124701,4.6492388 V 53.016727 c 0,0.747137 0.547458,1.381846 1.281798,1.482926 5.69518,1.243459 9.846233,-2.68093 13.858067,-3.67626 10.759107,-2.775241 9.629794,-13.02972 8.447224,-16.039436 2.372962,-2.204875 2.473358,-13.949241 -2.215611,-17.279571 -0.42101,-0.30385 -0.660703,-0.799941 -0.625842,-1.320793 C 89.749305,9.4918791 85.141757,5.6694212 82.786728,7.924317 82.143426,4.2415921 75.490714,0.38311273 71.507841,0.8882002 c -1.919405,0.1831732 -3.38314,1.8168836 -3.38314,3.7610386 z" />
  <path
     id="cerebro2"
     style="fill:#ffd5d5;stroke:#ffaaaa;stroke-width:1.68077"
     d="M 54.129716,47.428229 C 45.372248,43.389745 47.530663,33.158889 42.737191,31.531348 m 8.497,20.046195 C 48.053867,45.4638 57.345345,49.674032 59.95989,42.112133 M 52.427397,24.826559 c -1.763391,4.644522 2.396027,12.763513 2.200451,16.884207 M 44.159155,16.845738 c 1.786196,9.498357 18.887295,5.450239 15.799956,20.877447 M 55.317963,14.635099 c 0.06532,-6.9948157 4.676832,-6.0905253 5.418322,-8.4992381 M 50.424075,7.951649 c 9.543131,10.256769 5.015976,8.419425 1.088675,13.236809 M 65.073852,4.6492388 V 53.016727 c 0,0.747137 -0.547458,1.381846 -1.281797,1.482926 -5.695181,1.243459 -9.846233,-2.68093 -13.858067,-3.67626 -10.759107,-2.775241 -9.629794,-13.02972 -8.447224,-16.039436 -2.372962,-2.204875 -2.473359,-13.949241 2.215611,-17.279571 0.42101,-0.30385 0.660702,-0.799941 0.625842,-1.320793 -0.878968,-6.6917139 3.72858,-10.5141718 6.083609,-8.259276 0.643302,-3.6827249 7.296014,-7.54120427 11.278887,-7.0361168 1.919405,0.1831732 3.383139,1.8168836 3.383139,3.7610386 z" />
  <path
     id="aguja"
     style="fill:#ffffff;stroke:#000000;stroke-width:1.265"
     d="m 65.490576,4.5821329 -0.517798,71.0194371 3.428215,0.674378 0.10387,-53.262382 z m -0.170016,83.0300731 0.122989,93.290944 3.402893,0.84233 -0.148312,-93.264594 z m 0.236162,103.859294 -0.06873,54.4158 3.577561,0.28215 0.06046,-54.20548 z" />
  <path
     id="path56100"
     style="fill:#f2f2f2;stroke:#c8c8c8;stroke-width:0.964999"
     d="m 62.689885,106.548 c -0.244541,0.005 -0.497911,0.0349 -0.759463,0.0908 3.826548,1.35538 4.730997,8.63 0.304189,10.59883 l 1.631301,1.99836 c 2.265876,-1.25013 3.274743,-3.85655 3.276932,-6.38393 3.254921,1.90739 3.80148,8.4406 -0.357667,10.29039 l 1.631303,1.99838 c 5.213363,-2.87633 3.776499,-12.93341 -1.280903,-12.68405 -0.126144,-3.10029 -1.763262,-5.96612 -4.445688,-5.90876 z m -2.337619,9.68336 c -0.388164,0.009 -0.777273,0.13872 -1.107923,0.39742 l -0.49356,0.38634 c -0.813885,0.63691 -0.956695,1.80512 -0.319795,2.61899 l 0.223968,0.28608 c 2.64e-4,-2.7e-4 7.89e-4,-5.4e-4 0.001,-9.8e-4 l 0.04438,0.0591 1.915478,2.44779 c 0.636902,0.81388 1.805106,0.95619 2.618994,0.31928 l 0.49356,-0.38632 c 0.81388,-0.63691 0.956178,-1.80513 0.319275,-2.619 l -2.18486,-2.79138 c -0.378158,-0.48324 -0.943228,-0.72996 -1.51055,-0.7172 z m -1.651893,3.74685 -0.04542,-0.058 c -2.975758,3.822 -9.818799,1.19576 -10.214496,-2.84399 -1.392878,2.86032 1.114966,5.47099 4.336668,6.4326 -0.852355,2.60939 1.456416,4.93157 4.413801,5.86301 0.07341,1.90441 1.724604,3.72023 3.881121,4.77013 -0.09871,2.04218 1.665306,4.02348 3.986713,5.11759 -0.636551,2.23063 1.14038,4.51189 3.631171,5.76949 0.293876,1.20339 1.042859,2.42165 2.06547,3.4414 -2.004662,3.66127 3.09409,10.4843 8.349897,9.28958 l -0.108942,-2.52981 -0.003,-0.047 c -3.743051,1.19474 -7.188791,-2.54914 -7.313268,-5.90412 1.924871,1.47657 4.456342,2.24364 6.760216,1.32982 l -0.497751,-2.48797 -0.0091,-0.0408 c -2.020312,1.00868 -4.193528,0.39027 -5.798007,-0.94366 0.01224,-0.0235 0.02337,-0.0474 0.03612,-0.0706 -0.02421,0.0133 -0.04635,0.0284 -0.06994,0.0425 -0.451119,-0.37977 -0.855697,-0.81666 -1.198818,-1.28917 1.943659,0.42512 4.006806,0.19245 5.593892,-1.07533 l -1.205319,-2.23947 -0.01779,-0.0314 c -1.537527,1.46 -3.62308,1.58748 -5.464823,0.92961 -0.156153,-0.77866 -0.127381,-1.56542 0.13838,-2.29663 -0.646633,0.51374 -1.047521,1.1265 -1.245194,1.79069 -1.369631,-0.77062 -2.47586,-1.97413 -2.910028,-3.32824 2.269612,0.84565 4.909015,0.83783 6.842258,-0.70644 l -1.190645,-2.21374 -0.03249,-0.0571 c -2.784962,2.64376 -7.367515,0.91728 -9.04192,-1.93134 2.160455,0.6809 4.581249,0.57828 6.386247,-0.86354 l -1.190647,-2.21375 -0.03249,-0.0571 c -1.63129,1.54857 -3.879469,1.59744 -5.798654,0.79996 8.79e-4,-0.0238 6.86e-4,-0.0475 0.0021,-0.0714 -0.01307,0.019 -0.02408,0.0381 -0.03675,0.0572 -1.305245,-0.55041 -2.454408,-1.4922 -3.149353,-2.61887 2.243491,0.35641 4.630624,-0.1042 6.204603,-1.80427 l -1.523032,-2.03076 -0.02506,-0.0324 c -1.321793,1.6982 -3.406516,2.12253 -5.350568,1.7168 -0.0048,-0.11746 -0.0049,-0.23514 0.0013,-0.35349 -0.07103,0.10308 -0.13582,0.20652 -0.194951,0.31058 -2.127844,-0.50682 -4.047822,-2.00204 -4.556356,-3.89812 2.481326,0.6447 5.312755,0.31022 7.098071,-1.618 z m 4.50566,5.84679 c 0,0 5.26e-4,-5.4e-4 5.26e-4,-5.4e-4 l 0.02455,0.0329 1.935316,2.47346 c 0.636906,0.81389 1.80511,0.95619 2.618996,0.31929 l 0.493562,-0.38634 c 0.813875,-0.6369 0.956182,-1.80459 0.319281,-2.61848 l -2.184349,-2.79189 c -0.636902,-0.81388 -1.805115,-0.95617 -2.618993,-0.31928 l -0.493561,0.38634 c -0.813887,0.63691 -0.956182,1.80459 -0.319279,2.61847 z m 4.326211,5.70041 c 2.62e-4,-2.6e-4 7.88e-4,-8.1e-4 10e-4,-9.7e-4 l 0.03146,0.0581 1.532578,2.71283 c 0.391967,0.69397 1.155456,1.03959 1.89723,0.9286 -0.02517,0.35321 0.04984,0.71806 0.23778,1.05079 l 0.178734,0.31641 c 2.59e-4,-2.7e-4 7.85e-4,-8e-4 10e-4,-9.7e-4 l 0.03146,0.0581 1.532577,2.71283 c 0.441146,0.78103 1.353147,1.12142 2.174757,0.86542 -0.36428,0.56327 -0.410018,1.30335 -0.056,1.93011 l 0.178733,0.3164 c 0,0 5.23e-4,-5.5e-4 5.23e-4,-5.5e-4 l 0.01732,0.0319 1.54674,2.73908 c 0.297976,0.52754 0.811261,0.85371 1.365999,0.93125 -0.329559,0.42281 -0.474326,0.98385 -0.348936,1.55052 l 0.07827,0.35493 c 2.64e-4,-1.7e-4 7.91e-4,-2.8e-4 0.0011,-5.5e-4 l 0.008,0.0413 0.678555,3.06585 c 0.223276,1.00905 1.215559,1.64127 2.224617,1.41798 l 0.61182,-0.13511 c 1.00904,-0.22331 1.64178,-1.21557 1.418503,-2.22462 l -0.765918,-3.46169 c -0.189247,-0.85526 -0.931007,-1.43947 -1.767089,-1.46192 0.567359,-0.57817 0.70862,-1.47906 0.289351,-2.22134 l -1.743285,-3.08686 c -0.441303,-0.78131 -1.353952,-1.12142 -2.175784,-0.86489 0.364674,-0.56336 0.411186,-1.30364 0.05702,-1.93064 l -1.743799,-3.08633 c -0.391915,-0.69386 -1.155567,-1.03943 -1.897232,-0.9286 0.02517,-0.35321 -0.04985,-0.71807 -0.237782,-1.0508 l -1.743803,-3.08634 c -0.508256,-0.89984 -1.641608,-1.21522 -2.541449,-0.70697 l -0.545859,0.30821 c -0.899849,0.50825 -1.21521,1.64212 -0.706955,2.54196 z m 11.461152,23.65777 c 2.66e-4,-1.1e-4 7.92e-4,-5.4e-4 0.0011,-5.5e-4 l 0.002,0.0476 0.199474,3.12805 c 0.06576,1.03136 0.948794,1.80865 1.980168,1.7429 l 0.625511,-0.0396 c 1.031366,-0.0658 1.80916,-0.94932 1.743408,-1.9807 l -0.225978,-3.53763 c -0.06576,-1.03137 -0.9488,-1.80867 -1.980168,-1.74291 l -0.625508,0.0396 c -1.03137,0.0658 -1.808646,0.94931 -1.742893,1.98068 z m -5.976621,-36.30967 c -0.08625,-4.2e-4 -0.173993,0.003 -0.262981,0.008 3.581317,1.91147 3.389781,9.23974 -1.281354,10.52561 l 1.314201,2.21949 c 2.937032,-1.08646 4.351022,-4.41159 4.299384,-7.39407 3.101835,2.26396 2.729421,9.01142 -1.73477,10.24033 l 1.3142,2.21948 c 2.67259,-0.98865 4.083699,-3.83098 4.277393,-6.58205 3.10801,2.25985 2.737364,9.01477 -1.729565,10.24443 l 1.314719,2.21948 c 5.655977,-2.09227 5.666167,-12.48643 0.430683,-12.74775 0.119109,-2.97446 -1.192556,-5.7623 -3.882708,-5.88273 -0.134603,-2.71398 -1.501282,-5.06936 -4.059207,-5.0705 z M 86.6205,137.51289 c 2.866882,2.87411 0.543251,9.8267 -4.299761,9.6922 l 0.608482,2.50674 c 6.193264,-0.35912 9.238979,-10.8657 3.691279,-12.19894 z m 2.578354,8.56123 c 2.391761,3.28009 -0.971371,9.79383 -5.736355,8.91757 l 0.216759,2.5703 c 6.174982,0.59575 10.796923,-9.3189 5.519596,-11.48787 z m -25.591495,69.86649 c 3.049354,2.67972 1.186584,9.77004 -3.654816,9.95375 l 0.772466,2.4615 c 2.919737,-0.36276 4.98163,-2.95712 5.744398,-5.68724 2.246721,2.867 0.944206,8.85667 -3.390765,9.4943 l 1.033182,2.36383 c 2.819961,-0.6654 4.580369,-3.39242 5.076181,-6.14601 3.113492,2.45845 1.985818,9.468 -2.724517,10.16084 l 1.033181,2.36383 c 5.970385,-1.4088 7.188957,-12.05092 1.709614,-12.63076 0.461024,-2.74068 -0.335195,-5.47903 -2.588226,-6.21546 0.586459,-2.83256 -0.2525,-5.64466 -3.010698,-6.11858 z m -16.401677,4.68032 c -2.551548,2.31615 -0.745975,6.05997 2.31875,8.07647 -1.651085,2.39542 0.172892,5.44064 2.998905,7.10728 -0.758356,1.92336 0.382775,4.11116 2.314981,5.64555 0.365505,3.70709 5.392245,7.97999 9.73588,6.35363 l -0.447098,-2.48734 -0.01019,-0.0511 c -2.67436,1.27121 -5.557728,-0.25937 -7.062042,-2.50671 1.99997,0.83676 4.292569,0.96499 6.175544,-0.19316 l -0.916848,-2.35647 -0.0195,-0.0469 c -1.950302,1.44263 -4.399755,1.06658 -6.270427,-0.17007 -0.05643,-0.63424 0.01588,-1.26345 0.24318,-1.85304 -0.473908,0.3618 -0.819993,0.7775 -1.055854,1.22901 -0.98698,-0.87409 -1.711839,-1.99816 -1.955863,-3.17406 2.092436,0.99859 4.575679,1.23243 6.590452,-0.007 l -0.921074,-2.36782 -0.01476,-0.036 c -3.710855,2.74541 -9.223932,-1.09383 -9.125041,-4.92026 0.02141,0.0131 0.04238,0.0269 0.06389,0.0398 0.08147,0.049 0.163656,0.0963 0.246606,0.14274 1.907794,1.06812 4.195012,1.45689 6.208954,0.50063 l -0.656544,-2.4402 -0.01488,-0.0505 c -4.051823,2.36726 -9.225287,-2.23266 -8.514515,-6.06615 0.01144,-0.0619 0.02428,-0.1234 0.03884,-0.18481 0.01453,-0.0614 0.03097,-0.12241 0.04866,-0.18332 z m 8.427001,6.43429 c 2.6e-4,-2.1e-4 7.9e-4,-2.7e-4 0.0011,-5.6e-4 l 0.01385,0.0511 0.874957,3.00434 c 0.243874,0.83718 1.016373,1.37119 1.847812,1.34397 0.09238,-0.003 0.185612,-0.0135 0.278828,-0.0306 0.06204,-0.0119 0.124198,-0.0257 0.186215,-0.0438 l 0.594476,-0.17318 c -0.705612,0.48926 -1.000397,1.41375 -0.658694,2.24133 l 0.138572,0.33532 5.24e-4,-5.3e-4 0.0142,0.0366 1.199228,2.90514 c 0.394413,0.95524 1.481133,1.40659 2.436379,1.01216 l 0.115901,-0.048 c -0.605276,0.50896 -0.839176,1.3661 -0.520499,2.13792 l 0.138575,0.33583 c 2.64e-4,-2.2e-4 7.92e-4,-2.2e-4 0.0011,-5.5e-4 l 0.0185,0.0474 1.195004,2.8938 c 0.135029,0.32702 0.351317,0.59471 0.615547,0.78993 -0.116266,0.31386 -0.149854,0.66303 -0.07876,1.01662 l 0.07156,0.356 c 2.65e-4,-1.6e-4 7.93e-4,-2.3e-4 0.0011,-5.5e-4 l 0.0092,0.0516 0.617075,3.06839 c 0.203713,1.01319 1.183342,1.66482 2.196537,1.4611 l 0.614513,-0.12369 c 1.01319,-0.2037 1.664808,-1.18335 1.461094,-2.19653 l -0.698856,-3.4755 c -0.100833,-0.50147 -0.391459,-0.9143 -0.782448,-1.17877 0.184239,-0.44107 0.199269,-0.95271 0.0016,-1.4315 l -1.353075,-3.27703 c -0.394411,-0.95523 -1.481138,-1.40658 -2.436378,-1.01217 l -0.114865,0.0474 c 0.604681,-0.509 0.837999,-1.36593 0.519468,-2.1374 l -1.353071,-3.27651 c -0.394414,-0.95513 -1.480628,-1.40649 -2.435864,-1.01208 l -0.33017,0.13649 c 0.02119,-0.0155 0.0418,-0.0319 0.06216,-0.0486 0.564261,-0.45856 0.828536,-1.22445 0.61176,-1.96862 l -0.991299,-3.40342 c -0.289031,-0.9922 -1.320621,-1.5585 -2.312838,-1.26947 l -0.601693,0.17531 c -0.992228,0.28904 -1.558512,1.32062 -1.26948,2.31284 z m 17.374097,7.8129 c 2.810741,2.92904 0.352515,9.83555 -4.486996,9.60738 l 0.560519,2.51797 c 6.199043,-0.23924 9.447345,-10.68503 3.926477,-12.12535 z" />
  <path
     id="iniciales"
     d="m 37.845751,87.547095 c -1.905,1.9685 -2.031669,2.032433 -3.365169,2.032433 -3.138635,-0.123539 -5.724287,-1.058555 -9.397876,-1.079521 -2.921,0 -5.968958,1.460127 -8.953458,4.381127 -3.3655,3.2385 -4.826062,6.032894 -4.826062,9.398396 0,1.524 0.190334,2.53963 0.888834,4.38113 l 4.698939,-2.5399 c -1.016,-2.9845 -1.333253,-4.445084 -1.333253,-5.905584 0,-3.6195 2.730459,-5.77846 7.365959,-5.77846 3.058267,0.12838 6.348544,0.55703 9.143628,0.762228 -6.630708,7.872616 -12.504935,16.642586 -19.494417,24.129796 -2.54,2.4765 -4.4449587,3.36568 -7.3659586,3.36568 -1.0795,0 -1.6511447,-0.0634 -2.7941448,-0.44441 L 0,124.6947 c 1.4605,0.4445 2.159186,0.57154 3.365686,0.57154 4.3179999,0 7.302252,-2.28617 15.620752,-11.81117 5.0165,0 8.763123,0.0637 11.239622,0.25425 -0.404009,2.93751 -0.759411,5.46094 -1.206642,8.25479 -0.1905,1.0795 -0.317294,2.09559 -0.317294,2.73059 0,0.8255 0.634876,1.39733 1.460376,1.39733 4.274604,-0.72191 7.460387,-1.2829 10.985375,-1.90531 l 1.01596,-1.52394 c -2.603502,0.1905 -4.190939,0.31729 -4.698939,0.31729 -2.54,0 -3.23856,-0.63469 -3.23856,-2.85719 0,-4.064 2.476767,-21.844182 4.508767,-31.940682 z m -4.635376,7.239349 -2.603457,16.065166 h -9.652125 z m 90.153665,48.400666 c -6.985,0 -13.20777,2.85787 -18.28777,8.31887 -5.143498,5.5245 -8.381916,13.2714 -8.381916,20.0024 0,6.1595 3.365336,9.96941 8.826336,9.96941 3.937,0 7.23925,-0.95266 12.95425,-3.87366 -0.9525,3.81 -2.09552,7.93783 -2.66702,9.33483 -1.27,3.429 -3.11163,4.82606 -6.47713,4.82606 -1.8415,0 -4.88948,-0.25404 -6.85798,-0.57154 l -2.667017,4.19096 c 2.285997,0.254 3.238317,0.31729 4.571817,0.31729 5.08,0 9.39835,-2.28571 13.58935,-7.11171 5.33003,-7.93256 5.79476,-13.52747 8.19123,-23.11435 h 1.33377 l 2.92075,-1.77767 c -2.4765,-0.1905 -7.8105,-0.31781 -14.2875,-0.31781 l -3.87367,1.96887 v 0.50798 c 3.2385,-0.1905 6.35027,-0.31787 9.27127,-0.38137 l -2.28616,9.14414 c -2.7305,2.54 -6.47688,4.25452 -9.39788,4.25452 -4.699,0 -7.6202,-3.68293 -7.6202,-9.46143 0,-12.3825 8.31883,-23.93963 17.27233,-23.93963 2.6035,0 4.82569,1.07932 6.03219,2.98432 0.8255,1.27 1.14293,2.34974 1.52393,5.01674 l 4.69946,-5.27048 c -1.2065,-3.6195 -3.49294,-5.01674 -8.38244,-5.01674 z"/>
</svg>
