<?xml version="1.0" encoding="UTF-8" standalone="no"?>
<!-- Created with Inkscape (http://www.inkscape.org/) -->

<svg
   width="202.62297"
   height="185.92014"
   viewBox="0 0 53.61066 49.19137"
   version="1.1"
   id="svg5"
   inkscape:version="1.1 (1:1.1+202105261517+ce6663b3b7)"
   sodipodi:docname="medico.svg"
   xmlns:inkscape="http://www.inkscape.org/namespaces/inkscape"
   xmlns:sodipodi="http://sodipodi.sourceforge.net/DTD/sodipodi-0.dtd"
   xmlns="http://www.w3.org/2000/svg"
   xmlns:svg="http://www.w3.org/2000/svg">
  <sodipodi:namedview
     id="namedview7"
     pagecolor="#ffffff"
     bordercolor="#666666"
     borderopacity="1.0"
     inkscape:pageshadow="2"
     inkscape:pageopacity="0.0"
     inkscape:pagecheckerboard="0"
     inkscape:document-units="mm"
     showgrid="false"
     fit-margin-top="0"
     fit-margin-left="0"
     fit-margin-right="0"
     fit-margin-bottom="0"
     inkscape:zoom="1.9640018"
     inkscape:cx="11.710783"
     inkscape:cy="91.140445"
     inkscape:window-width="1366"
     inkscape:window-height="715"
     inkscape:window-x="0"
     inkscape:window-y="0"
     inkscape:window-maximized="1"
     inkscape:current-layer="layer1"
     units="px" />
  <defs
     id="defs2" />
  <g
     inkscape:label="Capa 1"
     inkscape:groupmode="layer"
     id="layer1"
     transform="translate(-44.724028,-93.246082)">
    <circle
       style="fill:none;fill-rule:evenodd;stroke:#00ff00;stroke-width:2.68102;stroke-linecap:round;stroke-miterlimit:4;stroke-dasharray:none;stroke-opacity:1"
       id="path31"
       cx="71.529358"
       cy="104.68017"
       r="10.093575" />
    <g
       id="circle113"
       transform="matrix(0.84672711,0,0,0.84672711,6.9198665,15.72286)"
       style="fill:#00ff00;fill-opacity:1;stroke:#00ff00;stroke-width:0.999929;stroke-miterlimit:4;stroke-dasharray:none;stroke-opacity:1">
      <path
         style="color:#000000;fill:#00ff00;fill-opacity:1;fill-rule:evenodd;stroke:#00ff00;stroke-width:0.999929;stroke-linecap:round;stroke-miterlimit:4;stroke-dasharray:none;stroke-opacity:1"
         d="m 76.304977,119.42468 c -17.190406,0 -31.157616,10.17706 -31.157616,22.70508 0,12.52801 14.755378,4.46804 31.945784,4.46804 17.19041,0 30.369445,8.05997 30.369445,-4.46804 0,-12.52802 -13.967205,-22.70508 -31.157613,-22.70508 z m 0,2.11133 c 15.623478,0 28.257853,9.20768 28.257853,20.59375 0,11.38607 -12.014461,0.1648 -27.637934,0.1648 -15.623472,0 -28.877781,11.22127 -28.877781,-0.1648 0,-11.38607 12.634389,-20.59375 28.257862,-20.59375 z"
         id="path119"
         sodipodi:nodetypes="ssssssssss" />
    </g>
    <path
       style="fill:none;stroke:#00ff00;stroke-width:2.68102;stroke-linecap:butt;stroke-linejoin:miter;stroke-miterlimit:4;stroke-dasharray:none;stroke-opacity:1"
       d="m 61.336372,103.7512 c 1.111306,1.43439 3.608724,-0.58539 4.609823,-3.878412 4.797117,4.959502 9.557563,4.612042 15.316976,2.495502"
       id="path14454"
       sodipodi:nodetypes="ccc" />
    <ellipse
       style="fill:#ffffff;fill-opacity:1;fill-rule:evenodd;stroke:#00ff00;stroke-width:2.68102;stroke-linecap:round;stroke-miterlimit:4;stroke-dasharray:none;stroke-opacity:1"
       id="path17240"
       cx="59.292709"
       cy="127.94691"
       rx="1.5085025"
       ry="1.4697809" />
    <path
       style="fill:none;stroke:#00ff00;stroke-width:2.68102;stroke-linecap:butt;stroke-linejoin:miter;stroke-miterlimit:4;stroke-dasharray:none;stroke-opacity:1"
       d="m 59.294085,126.41112 c 0.100623,-3.12027 2.983473,-5.89612 4.39428,-7.83835"
       id="path17275"
       sodipodi:nodetypes="cc" />
    <path
       style="fill:none;stroke:#00ff00;stroke-width:2.68102;stroke-linecap:butt;stroke-linejoin:miter;stroke-miterlimit:4;stroke-dasharray:none;stroke-opacity:1"
       d="m 78.57608,118.36075 c 0.772494,1.86437 2.39138,4.71635 1.720134,8.07061 -1.619699,0.27184 -6.128509,7.71476 -2.923608,7.29608"
       id="path17277"
       sodipodi:nodetypes="ccc" />
    <path
       style="fill:none;stroke:#00ff00;stroke-width:2.68102;stroke-linecap:butt;stroke-linejoin:miter;stroke-miterlimit:4;stroke-dasharray:none;stroke-opacity:1"
       d="m 80.296214,126.43136 c 2.789179,1.09396 5.148783,8.18526 1.956415,7.46901"
       id="path17279"
       sodipodi:nodetypes="cc" />
  </g>
</svg>
